<svg xmlns="http://www.w3.org/2000/svg" width="600" height="420" viewBox="0 0 600 420" fill="none">
  <rect width="600" height="420" rx="28" fill="#D9E8F7"/>
  <rect x="0" y="0" width="600" height="420" rx="28" fill="url(#paint0_linear_1_2)"/>
  <path d="M455 0H600V420H325L455 0Z" fill="#FFFFFF" fill-opacity="0.16"/>
  <path d="M355 32L280 388" stroke="#F3F8FD" stroke-width="3"/>
  <path d="M460 20L385 400" stroke="#F3F8FD" stroke-width="2"/>
  <path d="M520 28L445 404" stroke="#F3F8FD" stroke-width="2"/>
  <path d="M70 300H545" stroke="#F3F8FD" stroke-width="3"/>
  <path d="M92 96L92 318" stroke="#F3F8FD" stroke-width="3"/>
  <path d="M162 72L162 318" stroke="#F3F8FD" stroke-width="3"/>
  <path d="M232 48L232 318" stroke="#F3F8FD" stroke-width="3"/>
  <rect x="35" y="310" width="530" height="75" rx="18" fill="#FFFFFF" fill-opacity="0.18"/>
  <circle cx="142" cy="306" r="24" fill="#6DBA3F"/>
  <circle cx="188" cy="290" r="20" fill="#80C75B"/>
  <circle cx="226" cy="305" r="26" fill="#6DBA3F"/>
  <circle cx="505" cy="320" r="28" fill="#80C75B"/>
  <defs>
    <linearGradient id="paint0_linear_1_2" x1="0" y1="0" x2="600" y2="420" gradientUnits="userSpaceOnUse">
      <stop stop-color="#2A6CB0"/>
      <stop offset="1" stop-color="#7CA7D5"/>
    </linearGradient>
  </defs>
</svg>
